<?xml version="1.0" encoding="utf-8"?>
<!-- Generator: Adobe Illustrator 26.2.1, SVG Export Plug-In . SVG Version: 6.00 Build 0)  -->
<svg version="1.1" xmlns="http://www.w3.org/2000/svg" xmlns:xlink="http://www.w3.org/1999/xlink" x="0px" y="0px"
	 viewBox="0 0 389.4 98.94" style="enable-background:new 0 0 389.4 98.94;" xml:space="preserve">
<style type="text/css">
	.st0{display:none;}
	.st1{display:inline;}
	.st2{display:inline;fill:#FFFFFF;}
	.st3{font-family:'HelveticaNeue-Medium';}
	.st4{font-size:64.792px;}
	.st5{letter-spacing:-3;}
	.st6{fill:#EE767E;}
	.st7{fill:#FFFFFF;}
</style>
<g id="Capa_1" class="st0">
	<rect x="-156.5" y="-133.29" class="st1" width="684.96" height="387.61"/>
</g>
<g id="Capa_2" class="st0">
	<text transform="matrix(1 0 0 1 112.4798 67.9351)" class="st2 st3 st4 st5">Podcaster</text>
	<g class="st1">
		<path class="st6" d="M33.66,0c0.51,0,1.01,0,1.52,0c0.15,0.03,0.3,0.07,0.45,0.07c0.89,0.02,1.77,0.13,2.65,0.26
			c1.79,0.26,3.52,0.72,5.21,1.35c7.93,2.97,14.08,9.36,16.55,17.57c0.75,2.5,1.68,4.93,2.91,7.23c1.59,2.99,3.68,5.56,6.39,7.61
			c2.19,1.65,4.61,2.89,7.17,3.85c1.32,0.5,2.67,0.94,3.99,1.45c2.92,1.13,5.68,2.56,8.22,4.42c2.56,1.88,4.76,4.1,6.45,6.8
			c2.37,3.78,3.51,7.92,3.67,12.36c0.01,0.23,0.05,0.45,0.08,0.68c0,0.55,0,1.1,0,1.65c-0.03,0.17-0.06,0.34-0.08,0.52
			c-0.08,0.8-0.11,1.6-0.22,2.39c-0.38,2.51-1.13,4.92-2.19,7.23c-1.85,4.04-4.45,7.54-7.65,10.6c-3.83,3.67-8.23,6.46-13.1,8.54
			c-5.49,2.36-11.23,3.64-17.17,4.13c-1.37,0.11-2.74,0.15-4.12,0.2c-1.51,0.05-3.01-0.02-4.51-0.11c-1-0.06-1.99-0.14-2.99-0.22
			c-0.24-0.02-0.48-0.06-0.72-0.09c-0.08-0.24-0.04-0.4,0.17-0.54c0.68-0.46,1.22-1.07,1.68-1.75c0.6-0.91,1-1.9,1.3-2.94
			c0.44-1.52,0.64-3.07,0.74-4.64c0.11-1.84,0.05-3.67-0.13-5.5c-0.03-0.31-0.06-0.63-0.09-0.95c0.14-0.04,0.24-0.07,0.35-0.09
			c1-0.21,1.98-0.5,2.93-0.87c2.11-0.82,3.97-2.02,5.49-3.71c1.4-1.55,2.37-3.35,3.05-5.31c0.85-2.45,1.2-4.99,1.31-7.57
			c0.09-2.03,0.05-4.07-0.14-6.09c-0.15-1.66-0.33-3.32-0.58-4.97c-0.3-2.02-0.64-4.04-1.04-6.04c-0.53-2.62-1.13-5.24-1.73-7.85
			c-0.36-1.55-0.72-3.11-1.2-4.62c-1.65-5.22-4.85-9.2-9.66-11.85c-3.3-1.81-6.85-2.73-10.59-2.94c-1.12-0.06-2.24,0-3.36,0.05
			c-1.29,0.05-2.54,0.31-3.78,0.65c-1.86,0.52-3.7,1.11-5.45,1.92c-3.83,1.78-6.72,4.52-8.59,8.31c-0.97,1.97-1.62,4.05-2.04,6.21
			c-0.07,0.33-0.12,0.66-0.19,1.03c0.12-0.03,0.2-0.05,0.26-0.07c0.35-0.13,0.69-0.27,1.05-0.4c0.4-0.14,0.81-0.18,1.23-0.08
			c1.05,0.23,1.81,1.32,1.63,2.38c-0.14,0.87-0.65,1.43-1.46,1.76c-0.9,0.37-1.79,0.78-2.69,1.16c-0.21,0.09-0.28,0.21-0.26,0.43
			c0.04,0.48,0.06,0.96,0.1,1.45c0.02,0.28,0.05,0.56,0.09,0.88c0.15-0.06,0.27-0.12,0.39-0.16c0.74-0.3,1.47-0.63,2.23-0.9
			c0.79-0.29,1.52-0.11,2.14,0.46c1.16,1.07,0.78,2.97-0.69,3.55c-0.59,0.23-1.19,0.46-1.77,0.72c-0.64,0.29-1.26,0.62-1.9,0.93
			c0.04,0.69,0.1,1.34,0.21,2.04c0.26-0.12,0.46-0.22,0.67-0.31c0.85-0.36,1.69-0.72,2.55-1.07c0.42-0.17,0.86-0.18,1.29-0.06
			c0.89,0.24,1.54,1.02,1.58,1.9c0.05,1.01-0.48,1.84-1.43,2.18c-1.32,0.47-2.57,1.08-3.79,1.75c-0.1,0.06-0.21,0.12-0.33,0.2
			c0.07,0.49,0.14,0.97,0.22,1.5c0.16-0.07,0.26-0.12,0.37-0.17c0.97-0.42,1.93-0.85,2.9-1.25c0.63-0.26,1.26-0.2,1.83,0.15
			c0.76,0.46,1.12,1.15,1.04,2.02c-0.08,0.91-0.58,1.53-1.43,1.84c-1.27,0.46-2.49,1.04-3.68,1.69c-0.31,0.17-0.32,0.17-0.25,0.51
			c0.1,0.54,0.21,1.08,0.32,1.62c0.02,0.08,0.05,0.16,0.09,0.27c0.14-0.07,0.26-0.12,0.37-0.18c1.03-0.52,2.08-0.99,3.17-1.38
			c0.6-0.22,1.19-0.21,1.75,0.09c0.83,0.44,1.23,1.15,1.15,2.09c-0.07,0.91-0.58,1.53-1.43,1.84c-1.26,0.46-2.47,1.04-3.65,1.67
			c-0.11,0.06-0.22,0.13-0.34,0.2c0.02,0.09,0.03,0.15,0.04,0.22c0.17,0.57,0.32,1.14,0.5,1.71c0.65,2.07,1.4,4.09,2.43,6.01
			c0.73,1.36,1.58,2.64,2.69,3.73c1,0.98,2.15,1.7,3.54,1.99c0.31,0.06,0.62,0.1,0.96,0.15c0,0.12,0,0.23,0,0.33
			c0,0.48-0.01,0.97,0.01,1.45c0.01,0.23-0.07,0.38-0.23,0.54c-2,1.96-1.99,5.26,0.02,7.22c0.05,0.05,0.1,0.1,0.15,0.15
			c-0.11-0.01-0.19-0.05-0.28-0.09c-2.07-1.08-4.05-2.3-5.94-3.67c-5.94-4.3-10.66-9.7-14.33-16.04
			c-2.97-5.13-5.08-10.61-6.39-16.39c-0.68-3.01-1.11-6.05-1.26-9.13c-0.1-2.16-0.06-4.33,0.09-6.49c0.13-1.89,0.36-3.76,0.67-5.63
			c0.55-3.28,1.38-6.48,2.52-9.61c1.81-4.96,4.3-9.55,7.63-13.66c2.72-3.35,5.86-6.22,9.58-8.43c3.93-2.34,8.15-3.77,12.76-3.95
			C33.43,0.06,33.55,0.02,33.66,0z"/>
		<path class="st6" d="M57.78,42.1c-0.8-0.09-1.53-0.21-2.28-0.26c-0.95-0.06-1.91-0.11-2.86-0.09c-0.99,0.02-1.87,0.9-1.97,1.89
			c-0.14,1.35,0.84,2.45,2.21,2.49c0.92,0.03,1.85,0.06,2.76,0.15c0.96,0.09,1.91,0.25,2.85,0.51c0.27,0.08,0.39,0.22,0.43,0.49
			c0.11,0.67,0.25,1.34,0.38,2.01c0.01,0.05,0.01,0.11,0.02,0.18c-0.1,0-0.2,0.01-0.29,0c-0.84-0.11-1.67-0.25-2.51-0.32
			c-0.89-0.08-1.78-0.12-2.66-0.13c-1.2-0.02-2.16,0.86-2.23,2.06c-0.07,1.22,0.85,2.24,2.04,2.32c0.62,0.04,1.25,0.03,1.88,0.07
			c1.29,0.09,2.58,0.23,3.83,0.58c0.15,0.04,0.29,0.1,0.44,0.14c0.21,0.06,0.29,0.18,0.31,0.4c0.04,0.46,0.11,0.92,0.17,1.37
			c0.02,0.14,0,0.28,0,0.44c-0.43-0.09-0.83-0.2-1.24-0.26c-0.87-0.13-1.74-0.26-2.61-0.34c-0.86-0.08-1.73-0.11-2.6-0.13
			c-1.19-0.02-2.12,0.85-2.22,2.04c-0.08,0.97,0.53,2.06,1.82,2.32c0.06,0.01,0.13,0.02,0.2,0.02c0.89,0.04,1.78,0.07,2.67,0.14
			c1.06,0.08,2.12,0.23,3.14,0.54c0.38,0.12,0.74,0.33,1.11,0.49c0.11,0.05,0.14,0.12,0.14,0.23c0,0.13,0.01,0.26,0.01,0.4
			c-0.02,1.38,0,2.77-0.08,4.15c-0.14,2.39-0.51,4.74-1.37,6.99c-0.57,1.48-1.34,2.84-2.48,3.96c-0.45,0.44-0.94,0.82-1.48,1.15
			c-0.14,0.08-0.27,0.12-0.43,0.13c-0.93,0.07-1.86,0.16-2.79,0.24c-0.65,0.05-1.29,0.1-1.94,0.15c-0.7,0.06-1.4,0.12-2.1,0.18
			c-0.65,0.05-1.29,0.1-1.94,0.15c-0.8,0.06-1.6,0.12-2.4,0.18c-0.7,0.05-1.4,0.1-2.1,0.15c-0.85,0.06-1.71,0.12-2.56,0.18
			c-0.39,0.03-0.79,0.06-1.18,0.08c-1.6,0.09-3.2,0.18-4.81,0.26c-0.59,0.03-1.19,0.02-1.78,0.03c-0.05,0-0.1-0.01-0.21-0.03
			c0.11-0.11,0.18-0.19,0.26-0.26c1.98-1.84,3.67-3.91,4.99-6.27c0.89-1.59,1.55-3.28,1.85-5.08c0.3-1.76,0.22-3.5-0.3-5.22
			c-0.01-0.04-0.02-0.08-0.04-0.13c-0.01-0.03-0.03-0.06-0.05-0.1c-0.07,0-0.15-0.02-0.21,0c-2.56,0.73-5.09,1.52-7.49,2.68
			c-0.54,0.26-1.06,0.57-1.63,0.89c-0.05-0.38-0.11-0.75-0.16-1.13c-0.02-0.15,0.12-0.2,0.22-0.26c0.68-0.4,1.36-0.81,2.06-1.18
			c2.83-1.49,5.81-2.52,8.95-3.12c1.45-0.28,2.9-0.45,4.37-0.53c1.07-0.06,2.13-0.04,3.2,0.03c1.19,0.08,2.12-0.81,2.3-1.81
			c0.2-1.14-0.55-2.3-1.7-2.52c-0.43-0.08-0.87-0.13-1.31-0.12c-1.18,0-2.36-0.02-3.53,0.07c-5.29,0.41-10.28,1.88-14.94,4.43
			c-0.1,0.06-0.21,0.11-0.35,0.19c-0.06-0.34-0.11-0.63-0.16-0.93c-0.05-0.3-0.09-0.61-0.13-0.95c0.1-0.06,0.21-0.13,0.32-0.2
			c2.81-1.57,5.78-2.75,8.89-3.59c1.58-0.42,3.18-0.76,4.8-0.98c1.7-0.23,3.41-0.39,5.12-0.33c1.01,0.03,1.94-0.72,2.17-1.68
			c0.32-1.33-0.65-2.66-2.02-2.71c-0.91-0.03-1.82,0-2.73,0.05c-0.85,0.04-1.71,0.1-2.56,0.22c-1.19,0.17-2.39,0.35-3.57,0.6
			c-3.68,0.77-7.21,1.99-10.57,3.68c-0.17,0.09-0.35,0.18-0.57,0.29c-0.09-0.6-0.18-1.16-0.26-1.73c0.26-0.15,0.5-0.29,0.74-0.41
			c3.56-1.92,7.31-3.31,11.25-4.19c1.34-0.3,2.69-0.54,4.05-0.71c1.05-0.13,2.1-0.21,3.15-0.23c0.92-0.01,1.63-0.42,2.03-1.27
			c0.67-1.41-0.3-2.99-1.72-3.1c-0.66-0.05-1.34-0.01-2.01,0.02c-0.58,0.03-1.16,0.1-1.74,0.17c-0.97,0.13-1.94,0.25-2.9,0.42
			c-2.64,0.48-5.22,1.18-7.74,2.09c-1.88,0.68-3.71,1.48-5.49,2.39c-0.1,0.05-0.19,0.1-0.34,0.17c-0.08-0.54-0.16-1.04-0.25-1.58
			c0.09-0.07,0.18-0.14,0.28-0.21c3.53-2.35,7.37-3.97,11.53-4.84c1.15-0.24,2.31-0.42,3.48-0.53c1.12-0.11,2.24-0.16,3.36-0.1
			c1.12,0.06,2.24-0.77,2.31-2.09c0.06-1.12-0.7-2.05-1.71-2.24c-0.57-0.1-1.16-0.11-1.74-0.1c-0.8,0.01-1.61,0.03-2.4,0.11
			c-1.03,0.1-2.05,0.23-3.07,0.4c-2.5,0.44-4.93,1.14-7.29,2.09c-1.78,0.71-3.49,1.56-5.14,2.53c-0.08,0.04-0.15,0.09-0.23,0.13
			c-0.02,0.01-0.04,0-0.1,0.01c-0.07-0.47-0.14-0.94-0.21-1.42c-0.03-0.17,0.08-0.24,0.19-0.31c0.73-0.43,1.44-0.89,2.19-1.29
			c2.77-1.49,5.72-2.52,8.79-3.18c1.36-0.29,2.74-0.52,4.13-0.65c1.04-0.09,2.08-0.11,3.13-0.17c0.22-0.01,0.44-0.02,0.66-0.05
			c0.9-0.13,1.68-0.96,1.78-1.87c0.15-1.35-0.84-2.49-2.23-2.49c-0.85,0-1.69,0.05-2.54,0.1c-0.74,0.05-1.49,0.13-2.23,0.2
			c-1.27,0.13-2.52,0.36-3.76,0.63c-2.28,0.49-4.49,1.19-6.65,2.08c-0.05,0.02-0.1,0.04-0.17,0.06c-0.03-0.13,0.06-0.21,0.11-0.3
			c0.41-0.74,0.69-1.51,0.79-2.36c0.1-0.92-0.07-1.79-0.45-2.63c-0.33-0.73-0.79-1.37-1.33-1.95c-0.08-0.09-0.16-0.18-0.27-0.29
			c0.11-0.06,0.2-0.11,0.29-0.15c1.96-0.86,3.98-1.48,6.08-1.92c1.23-0.25,2.47-0.43,3.71-0.51c1.2-0.07,2.39-0.07,3.59,0.03
			c1.49,0.13,2.95,0.41,4.38,0.87c3.24,1.05,5.94,2.91,8.16,5.48c0.05,0.06,0.09,0.12,0.17,0.23c-0.53,0-1.01-0.02-1.49,0
			c-0.92,0.04-1.6,0.48-1.96,1.32c-0.65,1.52,0.48,3.05,1.98,3.06c0.51,0,1.01-0.02,1.52,0c0.8,0.04,1.59,0.14,2.37,0.35
			c0.22,0.06,0.36,0.16,0.41,0.4c0.07,0.3,0.17,0.59,0.25,0.89c0.02,0.08,0.03,0.17,0.05,0.26c-0.48-0.04-0.94-0.09-1.4-0.1
			c-0.8-0.03-1.6-0.06-2.4-0.04c-1.06,0.03-1.86,0.7-2.11,1.68c-0.36,1.43,0.8,2.82,2.27,2.72c0.87-0.06,1.73,0,2.6,0.08
			c0.64,0.06,1.26,0.15,1.87,0.34c0.08,0.03,0.17,0.06,0.25,0.08c0.17,0.05,0.27,0.15,0.31,0.34C57.53,41.1,57.66,41.58,57.78,42.1z
			"/>
		<path class="st6" d="M46.37,94.16c0.04-0.11,0.08-0.22,0.13-0.33c0.47-1.14,0.71-2.33,0.77-3.56c0.09-1.71-0.09-3.4-0.53-5.06
			c-0.12-0.45-0.03-0.44-0.57-0.45c-1.44-0.02-2.88-0.03-4.32-0.04c-0.19,0-0.39,0-0.62,0c0,0.12,0,0.22,0,0.31
			c-0.02,0.96,0.01,1.91-0.07,2.86c-0.2,2.18-0.82,4.22-2.08,6.04c-0.27,0.4-0.58,0.77-0.97,1.08c0.02-0.07,0.04-0.14,0.07-0.21
			c0.55-1.43,0.86-2.92,1.05-4.44c0.2-1.59,0.23-3.18,0.17-4.77c-0.02-0.7-0.11-1.4-0.17-2.1c-0.01-0.17-0.02-0.35-0.04-0.55
			c2.92-0.29,5.81-0.57,8.74-0.86c0.03,0.13,0.07,0.24,0.09,0.36c0.33,1.58,0.56,3.18,0.57,4.8c0.01,1.74-0.18,3.44-0.9,5.05
			c-0.25,0.56-0.55,1.07-0.95,1.53c-0.11,0.12-0.22,0.23-0.33,0.35C46.4,94.18,46.39,94.17,46.37,94.16z"/>
		<path class="st6" d="M43.84,98.5c-0.31-0.09-0.57-0.16-0.83-0.25c-0.06-0.02-0.11-0.1-0.13-0.17c-0.02-0.09-0.01-0.2-0.01-0.29
			c0-2.72,0-5.45,0-8.17c0-0.13,0.01-0.26,0.02-0.4c0.33,0,0.63,0,0.95,0C43.84,92.3,43.84,95.37,43.84,98.5z"/>
		<path class="st6" d="M32.52,93.51c1.7-0.77,2.71-2.09,2.8-3.94c0.09-1.85-0.79-3.26-2.46-4.19c1.74,0.27,3.16,1.56,3.52,3.2
			c0.3,1.34-0.07,2.52-1,3.52c-0.7,0.76-1.58,1.2-2.6,1.36C32.69,93.48,32.6,93.5,32.52,93.51z"/>
	</g>
</g>
<g id="Capa_2_copia">
	<g>
		<g>
			<path class="st7" d="M369.77,67.94h7.39V52c0-1.86,0.24-3.5,0.71-4.92c0.47-1.43,1.12-2.62,1.94-3.6
				c0.82-0.97,1.78-1.71,2.88-2.2c1.1-0.5,2.28-0.75,3.53-0.75c0.52,0,1.05,0.03,1.59,0.1c0.54,0.06,1.07,0.14,1.59,0.23v-7.13
				c-0.35-0.04-0.68-0.09-1-0.13c-0.32-0.04-0.92-0.06-1.78-0.06c-1.12,0-2.23,0.22-3.3,0.65c-1.08,0.43-2.06,1-2.95,1.72
				c-0.89,0.71-1.64,1.5-2.27,2.36c-0.63,0.86-1.05,1.75-1.26,2.66h-0.13v-6.48h-6.93V67.94z M368.02,53.1
				c0.3-2.5,0.14-4.93-0.49-7.29c-0.63-2.35-1.63-4.44-3.01-6.25c-1.38-1.81-3.12-3.27-5.22-4.37c-2.1-1.1-4.46-1.65-7.09-1.65
				c-2.51,0-4.75,0.48-6.74,1.43c-1.99,0.95-3.68,2.24-5.09,3.85c-1.4,1.62-2.48,3.5-3.24,5.64c-0.76,2.14-1.13,4.4-1.13,6.77
				c0,2.59,0.36,4.97,1.07,7.13c0.71,2.16,1.77,4.02,3.17,5.57c1.4,1.56,3.12,2.76,5.15,3.63c2.03,0.86,4.36,1.3,7,1.3
				c1.81,0,3.55-0.25,5.22-0.75c1.66-0.5,3.16-1.23,4.5-2.2c1.34-0.97,2.48-2.17,3.43-3.6c0.95-1.43,1.62-3.05,2.01-4.86h-7
				c-0.65,1.86-1.63,3.25-2.95,4.18c-1.32,0.93-3.06,1.39-5.22,1.39c-1.55,0-2.89-0.27-4.02-0.81c-1.12-0.54-2.05-1.26-2.79-2.17
				c-0.74-0.91-1.29-1.96-1.65-3.17c-0.37-1.21-0.55-2.46-0.55-3.76H368.02z M343.4,48.24c0.04-1.25,0.29-2.42,0.75-3.5
				c0.45-1.08,1.06-2.02,1.81-2.82c0.76-0.8,1.66-1.43,2.72-1.88c1.06-0.45,2.24-0.68,3.53-0.68c1.25,0,2.39,0.25,3.4,0.75
				c1.01,0.5,1.88,1.15,2.59,1.94c0.71,0.8,1.27,1.74,1.68,2.82c0.41,1.08,0.66,2.2,0.75,3.37H343.4z M316.57,39.94h5.57v19.76
				c0.04,1.38,0.18,2.61,0.42,3.69c0.24,1.08,0.69,1.98,1.36,2.69c0.67,0.71,1.6,1.25,2.79,1.62c1.19,0.37,2.75,0.55,4.7,0.55
				c0.82,0,1.62-0.04,2.4-0.13c0.78-0.09,1.58-0.17,2.4-0.26v-5.7c-0.52,0.13-1.04,0.21-1.55,0.23c-0.52,0.02-1.04,0.03-1.56,0.03
				c-0.82,0-1.47-0.1-1.94-0.29c-0.48-0.19-0.83-0.49-1.07-0.87c-0.24-0.39-0.39-0.86-0.45-1.43c-0.07-0.56-0.1-1.23-0.1-2.01V39.94
				h6.67v-5.51h-6.67V24.4h-7.39v10.04h-5.57V39.94z M288.39,57.18c0.04,1.99,0.44,3.7,1.2,5.15c0.76,1.45,1.79,2.66,3.11,3.63
				c1.32,0.97,2.87,1.7,4.67,2.17c1.79,0.47,3.75,0.71,5.86,0.71c1.73,0,3.48-0.19,5.25-0.58c1.77-0.39,3.38-1.01,4.83-1.88
				c1.45-0.86,2.62-1.99,3.53-3.37c0.91-1.38,1.36-3.07,1.36-5.05c0-1.64-0.31-3.02-0.94-4.15c-0.63-1.12-1.45-2.05-2.46-2.79
				c-1.02-0.73-2.17-1.32-3.47-1.75c-1.3-0.43-2.61-0.8-3.95-1.1c-1.38-0.3-2.72-0.58-4.02-0.84c-1.3-0.26-2.45-0.57-3.47-0.94
				c-1.02-0.37-1.84-0.83-2.46-1.39c-0.63-0.56-0.94-1.3-0.94-2.2c0-0.73,0.22-1.33,0.65-1.78c0.43-0.45,0.96-0.8,1.59-1.04
				c0.63-0.24,1.3-0.4,2.01-0.49c0.71-0.09,1.33-0.13,1.85-0.13c1.64,0,3.1,0.3,4.37,0.91c1.27,0.61,2.08,1.79,2.43,3.56h7.71
				c-0.22-1.86-0.75-3.44-1.59-4.76c-0.84-1.32-1.9-2.39-3.17-3.21c-1.27-0.82-2.7-1.41-4.28-1.78c-1.58-0.37-3.23-0.55-4.96-0.55
				c-1.51,0-3.1,0.15-4.76,0.45c-1.66,0.3-3.17,0.83-4.54,1.59c-1.36,0.76-2.48,1.75-3.37,2.98c-0.89,1.23-1.33,2.75-1.33,4.57
				c0,1.68,0.3,3.1,0.91,4.24c0.6,1.15,1.41,2.08,2.43,2.82c1.01,0.73,2.16,1.32,3.43,1.75c1.27,0.43,2.6,0.8,3.98,1.1
				c1.34,0.3,2.66,0.58,3.95,0.84c1.3,0.26,2.45,0.57,3.47,0.94c1.01,0.37,1.85,0.85,2.5,1.46c0.65,0.61,0.99,1.38,1.04,2.33
				c0.04,0.95-0.18,1.72-0.68,2.3c-0.5,0.58-1.13,1.03-1.91,1.33c-0.78,0.3-1.61,0.51-2.49,0.62c-0.89,0.11-1.67,0.16-2.36,0.16
				c-1.99,0-3.69-0.43-5.12-1.3c-1.43-0.86-2.25-2.38-2.46-4.54H288.39z M278.73,56.66c0,1.17-0.28,2.15-0.84,2.95
				c-0.56,0.8-1.26,1.46-2.11,1.98s-1.74,0.89-2.69,1.1c-0.95,0.22-1.84,0.32-2.66,0.32c-0.65,0-1.37-0.06-2.17-0.19
				c-0.8-0.13-1.53-0.36-2.2-0.68c-0.67-0.32-1.24-0.77-1.72-1.33c-0.48-0.56-0.71-1.25-0.71-2.07c0-0.95,0.16-1.76,0.49-2.43
				c0.32-0.67,0.77-1.21,1.33-1.62c0.56-0.41,1.21-0.73,1.94-0.97c0.73-0.24,1.49-0.42,2.27-0.55c1.64-0.3,3.28-0.53,4.92-0.68
				c1.64-0.15,3.02-0.59,4.15-1.33V56.66z M286.12,43.25c0-1.77-0.39-3.27-1.17-4.5c-0.78-1.23-1.8-2.24-3.08-3.01
				c-1.27-0.78-2.71-1.34-4.31-1.68c-1.6-0.35-3.22-0.52-4.86-0.52c-1.86,0-3.67,0.17-5.44,0.52c-1.77,0.35-3.36,0.95-4.76,1.81
				c-1.4,0.86-2.56,2.01-3.47,3.43c-0.91,1.43-1.43,3.22-1.56,5.38h7.39c0.17-1.81,0.93-3.15,2.27-4.02c1.34-0.86,3.04-1.3,5.12-1.3
				c0.73,0,1.51,0.05,2.33,0.16c0.82,0.11,1.56,0.32,2.24,0.65c0.67,0.32,1.23,0.79,1.68,1.39c0.45,0.6,0.68,1.38,0.68,2.33
				c0,1.08-0.27,1.89-0.81,2.43c-0.54,0.54-1.27,0.94-2.2,1.2c-0.93,0.26-2,0.44-3.21,0.55c-1.21,0.11-2.48,0.29-3.82,0.55
				c-1.55,0.17-3.1,0.42-4.63,0.75c-1.53,0.32-2.92,0.85-4.15,1.59c-1.23,0.73-2.23,1.75-2.98,3.05c-0.76,1.3-1.13,2.98-1.13,5.05
				c0,1.64,0.31,3.08,0.94,4.31c0.63,1.23,1.47,2.25,2.53,3.05c1.06,0.8,2.28,1.4,3.66,1.81c1.38,0.41,2.83,0.62,4.34,0.62
				c1.99,0,4.05-0.32,6.19-0.97s3.94-1.68,5.41-3.11c0.3,1.51,0.95,2.57,1.94,3.17c0.99,0.6,2.25,0.91,3.76,0.91
				c0.3,0,0.67-0.02,1.1-0.06c0.43-0.04,0.86-0.11,1.3-0.19c0.43-0.09,0.85-0.18,1.26-0.29c0.41-0.11,0.75-0.21,1-0.29v-5.12
				c-0.39,0.09-0.73,0.13-1.04,0.13c-0.3,0-0.56,0-0.78,0c-0.69,0-1.16-0.19-1.39-0.58c-0.24-0.39-0.36-1.04-0.36-1.94V43.25z
				 M255.93,45.65c-0.17-2.07-0.69-3.87-1.56-5.38c-0.86-1.51-1.98-2.76-3.34-3.76c-1.36-0.99-2.92-1.74-4.67-2.24
				c-1.75-0.5-3.6-0.75-5.54-0.75c-2.76,0-5.17,0.46-7.22,1.39c-2.05,0.93-3.77,2.2-5.15,3.82c-1.38,1.62-2.42,3.53-3.11,5.73
				c-0.69,2.2-1.04,4.56-1.04,7.06c0,2.46,0.36,4.75,1.07,6.87c0.71,2.12,1.76,3.94,3.14,5.48c1.38,1.53,3.08,2.74,5.09,3.63
				c2.01,0.89,4.33,1.33,6.96,1.33c4.32,0,7.79-1.16,10.4-3.47c2.61-2.31,4.27-5.65,4.96-10.01h-7.39c-0.35,2.42-1.22,4.3-2.62,5.64
				c-1.4,1.34-3.19,2.01-5.35,2.01c-1.6,0-2.96-0.33-4.08-1c-1.12-0.67-2.04-1.54-2.75-2.62c-0.71-1.08-1.23-2.31-1.55-3.69
				c-0.32-1.38-0.49-2.76-0.49-4.15c0-2.55,0.3-4.61,0.91-6.19c0.6-1.58,1.36-2.81,2.27-3.69c0.91-0.89,1.9-1.49,2.98-1.81
				c1.08-0.32,2.09-0.49,3.05-0.49c2.07,0,3.79,0.53,5.15,1.59c1.36,1.06,2.19,2.62,2.49,4.7H255.93z M196.48,47.1
				c0.32-1.45,0.86-2.74,1.62-3.89c0.76-1.14,1.73-2.07,2.92-2.79c1.19-0.71,2.65-1.07,4.37-1.07c2.85,0,5.11,1.04,6.77,3.11
				c1.66,2.07,2.49,4.97,2.49,8.68c0,1.47-0.18,2.91-0.55,4.31c-0.37,1.4-0.93,2.67-1.68,3.79c-0.76,1.12-1.73,2.03-2.92,2.72
				c-1.19,0.69-2.6,1.04-4.24,1.04c-1.6,0-2.98-0.32-4.15-0.97c-1.17-0.65-2.13-1.51-2.88-2.59c-0.76-1.08-1.32-2.31-1.68-3.69
				c-0.37-1.38-0.55-2.79-0.55-4.21C195.99,50.03,196.16,48.55,196.48,47.1z M221.78,21.67h-7.39v17.11h-0.13
				c-0.56-0.91-1.26-1.69-2.11-2.37c-0.84-0.67-1.76-1.22-2.75-1.65c-0.99-0.43-2.03-0.75-3.11-0.94c-1.08-0.19-2.14-0.29-3.17-0.29
				c-1.81,0-3.6,0.34-5.35,1c-1.75,0.67-3.3,1.72-4.66,3.14c-1.36,1.43-2.45,3.24-3.27,5.44c-0.82,2.2-1.23,4.82-1.23,7.84
				c0,2.51,0.32,4.85,0.97,7.03c0.65,2.18,1.62,4.07,2.92,5.67c1.3,1.6,2.93,2.86,4.89,3.79c1.97,0.93,4.27,1.39,6.9,1.39
				c2.12,0,4.12-0.42,6.03-1.26c1.9-0.84,3.35-2.24,4.34-4.18h0.13v4.54h7V21.67z M166.77,61.97c-1.21-0.69-2.2-1.6-2.98-2.72
				c-0.78-1.12-1.35-2.39-1.72-3.79c-0.37-1.4-0.55-2.84-0.55-4.31c0-1.43,0.18-2.85,0.55-4.28c0.37-1.43,0.94-2.69,1.72-3.79
				c0.78-1.1,1.77-2,2.98-2.69c1.21-0.69,2.63-1.04,4.28-1.04c1.64,0,3.07,0.35,4.28,1.04c1.21,0.69,2.2,1.59,2.98,2.69
				s1.35,2.36,1.72,3.79c0.37,1.43,0.55,2.85,0.55,4.28c0,1.47-0.18,2.91-0.55,4.31c-0.37,1.4-0.94,2.67-1.72,3.79
				c-0.78,1.12-1.77,2.03-2.98,2.72c-1.21,0.69-2.64,1.04-4.28,1.04C169.41,63.01,167.98,62.67,166.77,61.97z M178.21,67.51
				c2.09-0.88,3.87-2.11,5.31-3.66c1.45-1.55,2.55-3.41,3.3-5.57c0.76-2.16,1.13-4.54,1.13-7.13c0-2.55-0.38-4.9-1.13-7.06
				c-0.76-2.16-1.86-4.02-3.3-5.57c-1.45-1.56-3.22-2.77-5.31-3.66c-2.1-0.88-4.48-1.33-7.16-1.33c-2.68,0-5.06,0.44-7.16,1.33
				c-2.1,0.89-3.87,2.11-5.31,3.66c-1.45,1.56-2.55,3.41-3.3,5.57c-0.76,2.16-1.13,4.51-1.13,7.06c0,2.59,0.38,4.97,1.13,7.13
				c0.76,2.16,1.86,4.02,3.3,5.57c1.45,1.56,3.22,2.78,5.31,3.66c2.09,0.89,4.48,1.33,7.16,1.33
				C173.73,68.84,176.11,68.4,178.21,67.51z M125.5,28.28h11.99c1.08,0,2.09,0.11,3.04,0.32c0.95,0.22,1.79,0.62,2.53,1.2
				c0.73,0.58,1.32,1.37,1.75,2.36c0.43,0.99,0.65,2.25,0.65,3.76c0,1.47-0.25,2.69-0.75,3.66c-0.5,0.97-1.15,1.75-1.94,2.33
				c-0.8,0.58-1.67,1-2.62,1.26c-0.95,0.26-1.88,0.39-2.79,0.39H125.5V28.28z M117.4,67.94h8.1V50.18h12.31
				c3.28,0,5.96-0.46,8.03-1.39c2.07-0.93,3.67-2.11,4.79-3.53c1.12-1.43,1.89-2.97,2.3-4.63c0.41-1.66,0.62-3.21,0.62-4.63
				s-0.21-2.98-0.62-4.67c-0.41-1.68-1.18-3.24-2.3-4.67c-1.12-1.43-2.72-2.61-4.79-3.56c-2.07-0.95-4.75-1.43-8.03-1.43H117.4
				V67.94z"/>
		</g>
		<g>
			<path class="st6" d="M33.66,0c0.51,0,1.01,0,1.52,0c0.15,0.03,0.3,0.07,0.45,0.07c0.89,0.02,1.77,0.13,2.65,0.26
				c1.79,0.26,3.52,0.72,5.21,1.35c7.93,2.97,14.08,9.36,16.55,17.57c0.75,2.5,1.68,4.93,2.91,7.23c1.59,2.99,3.68,5.56,6.39,7.61
				c2.19,1.65,4.61,2.89,7.17,3.85c1.32,0.5,2.67,0.94,3.99,1.45c2.92,1.13,5.68,2.56,8.22,4.42c2.56,1.88,4.76,4.1,6.45,6.8
				c2.37,3.78,3.51,7.92,3.67,12.36c0.01,0.23,0.05,0.45,0.08,0.68c0,0.55,0,1.1,0,1.65c-0.03,0.17-0.06,0.34-0.08,0.52
				c-0.08,0.8-0.11,1.6-0.22,2.39c-0.38,2.51-1.13,4.92-2.19,7.23c-1.85,4.04-4.45,7.54-7.65,10.6c-3.83,3.67-8.23,6.46-13.1,8.54
				c-5.49,2.36-11.23,3.64-17.17,4.13c-1.37,0.11-2.74,0.15-4.12,0.2c-1.51,0.05-3.01-0.02-4.51-0.11c-1-0.06-1.99-0.14-2.99-0.22
				c-0.24-0.02-0.48-0.06-0.72-0.09c-0.08-0.24-0.04-0.4,0.17-0.54c0.68-0.46,1.22-1.07,1.68-1.75c0.6-0.91,1-1.9,1.3-2.94
				c0.44-1.52,0.64-3.07,0.74-4.64c0.11-1.84,0.05-3.67-0.13-5.5c-0.03-0.31-0.06-0.63-0.09-0.95c0.14-0.04,0.24-0.07,0.35-0.09
				c1-0.21,1.98-0.5,2.93-0.87c2.11-0.82,3.97-2.02,5.49-3.71c1.4-1.55,2.37-3.35,3.05-5.31c0.85-2.45,1.2-4.99,1.31-7.57
				c0.09-2.03,0.05-4.07-0.14-6.09c-0.15-1.66-0.33-3.32-0.58-4.97c-0.3-2.02-0.64-4.04-1.04-6.04c-0.53-2.62-1.13-5.24-1.73-7.85
				c-0.36-1.55-0.72-3.11-1.2-4.62c-1.65-5.22-4.85-9.2-9.66-11.85c-3.3-1.81-6.85-2.73-10.59-2.94c-1.12-0.06-2.24,0-3.36,0.05
				c-1.29,0.05-2.54,0.31-3.78,0.65c-1.86,0.52-3.7,1.11-5.45,1.92c-3.83,1.78-6.72,4.52-8.59,8.31c-0.97,1.97-1.62,4.05-2.04,6.21
				c-0.07,0.33-0.12,0.66-0.19,1.03c0.12-0.03,0.2-0.05,0.26-0.07c0.35-0.13,0.69-0.27,1.05-0.4c0.4-0.14,0.81-0.18,1.23-0.08
				c1.05,0.23,1.81,1.32,1.63,2.38c-0.14,0.87-0.65,1.43-1.46,1.76c-0.9,0.37-1.79,0.78-2.69,1.16c-0.21,0.09-0.28,0.21-0.26,0.43
				c0.04,0.48,0.06,0.96,0.1,1.45c0.02,0.28,0.05,0.56,0.09,0.88c0.15-0.06,0.27-0.12,0.39-0.16c0.74-0.3,1.47-0.63,2.23-0.9
				c0.79-0.29,1.52-0.11,2.14,0.46c1.16,1.07,0.78,2.97-0.69,3.55c-0.59,0.23-1.19,0.46-1.77,0.72c-0.64,0.29-1.26,0.62-1.9,0.93
				c0.04,0.69,0.1,1.34,0.21,2.04c0.26-0.12,0.46-0.22,0.67-0.31c0.85-0.36,1.69-0.72,2.55-1.07c0.42-0.17,0.86-0.18,1.29-0.06
				c0.89,0.24,1.54,1.02,1.58,1.9c0.05,1.01-0.48,1.84-1.43,2.18c-1.32,0.47-2.57,1.08-3.79,1.75c-0.1,0.06-0.21,0.12-0.33,0.2
				c0.07,0.49,0.14,0.97,0.22,1.5c0.16-0.07,0.26-0.12,0.37-0.17c0.97-0.42,1.93-0.85,2.9-1.25c0.63-0.26,1.26-0.2,1.83,0.15
				c0.76,0.46,1.12,1.15,1.04,2.02c-0.08,0.91-0.58,1.53-1.43,1.84c-1.27,0.46-2.49,1.04-3.68,1.69c-0.31,0.17-0.32,0.17-0.25,0.51
				c0.1,0.54,0.21,1.08,0.32,1.62c0.02,0.08,0.05,0.16,0.09,0.27c0.14-0.07,0.26-0.12,0.37-0.18c1.03-0.52,2.08-0.99,3.17-1.38
				c0.6-0.22,1.19-0.21,1.75,0.09c0.83,0.44,1.23,1.15,1.15,2.09c-0.07,0.91-0.58,1.53-1.43,1.84c-1.26,0.46-2.47,1.04-3.65,1.67
				c-0.11,0.06-0.22,0.13-0.34,0.2c0.02,0.09,0.03,0.15,0.04,0.22c0.17,0.57,0.32,1.14,0.5,1.71c0.65,2.07,1.4,4.09,2.43,6.01
				c0.73,1.36,1.58,2.64,2.69,3.73c1,0.98,2.15,1.7,3.54,1.99c0.31,0.06,0.62,0.1,0.96,0.15c0,0.12,0,0.23,0,0.33
				c0,0.48-0.01,0.97,0.01,1.45c0.01,0.23-0.07,0.38-0.23,0.54c-2,1.96-1.99,5.26,0.02,7.22c0.05,0.05,0.1,0.1,0.15,0.15
				c-0.11-0.01-0.19-0.05-0.28-0.09c-2.07-1.08-4.05-2.3-5.94-3.67c-5.94-4.3-10.66-9.7-14.33-16.04
				c-2.97-5.13-5.08-10.61-6.39-16.39c-0.68-3.01-1.11-6.05-1.26-9.13c-0.1-2.16-0.06-4.33,0.09-6.49c0.13-1.89,0.36-3.76,0.67-5.63
				c0.55-3.28,1.38-6.48,2.52-9.61c1.81-4.96,4.3-9.55,7.63-13.66c2.72-3.35,5.86-6.22,9.58-8.43c3.93-2.34,8.15-3.77,12.76-3.95
				C33.43,0.06,33.55,0.02,33.66,0z"/>
			<path class="st6" d="M57.78,42.1c-0.8-0.09-1.53-0.21-2.28-0.26c-0.95-0.06-1.91-0.11-2.86-0.09c-0.99,0.02-1.87,0.9-1.97,1.89
				c-0.14,1.35,0.84,2.45,2.21,2.49c0.92,0.03,1.85,0.06,2.76,0.15c0.96,0.09,1.91,0.25,2.85,0.51c0.27,0.08,0.39,0.22,0.43,0.49
				c0.11,0.67,0.25,1.34,0.38,2.01c0.01,0.05,0.01,0.11,0.02,0.18c-0.1,0-0.2,0.01-0.29,0c-0.84-0.11-1.67-0.25-2.51-0.32
				c-0.89-0.08-1.78-0.12-2.66-0.13c-1.2-0.02-2.16,0.86-2.23,2.06c-0.07,1.22,0.85,2.24,2.04,2.32c0.62,0.04,1.25,0.03,1.88,0.07
				c1.29,0.09,2.58,0.23,3.83,0.58c0.15,0.04,0.29,0.1,0.44,0.14c0.21,0.06,0.29,0.18,0.31,0.4c0.04,0.46,0.11,0.92,0.17,1.37
				c0.02,0.14,0,0.28,0,0.44c-0.43-0.09-0.83-0.2-1.24-0.26c-0.87-0.13-1.74-0.26-2.61-0.34c-0.86-0.08-1.73-0.11-2.6-0.13
				c-1.19-0.02-2.12,0.85-2.22,2.04c-0.08,0.97,0.53,2.06,1.82,2.32c0.06,0.01,0.13,0.02,0.2,0.02c0.89,0.04,1.78,0.07,2.67,0.14
				c1.06,0.08,2.12,0.23,3.14,0.54c0.38,0.12,0.74,0.33,1.11,0.49c0.11,0.05,0.14,0.12,0.14,0.23c0,0.13,0.01,0.26,0.01,0.4
				c-0.02,1.38,0,2.77-0.08,4.15c-0.14,2.39-0.51,4.74-1.37,6.99c-0.57,1.48-1.34,2.84-2.48,3.96c-0.45,0.44-0.94,0.82-1.48,1.15
				c-0.14,0.08-0.27,0.12-0.43,0.13c-0.93,0.07-1.86,0.16-2.79,0.24c-0.65,0.05-1.29,0.1-1.94,0.15c-0.7,0.06-1.4,0.12-2.1,0.18
				c-0.65,0.05-1.29,0.1-1.94,0.15c-0.8,0.06-1.6,0.12-2.4,0.18c-0.7,0.05-1.4,0.1-2.1,0.15c-0.85,0.06-1.71,0.12-2.56,0.18
				c-0.39,0.03-0.79,0.06-1.18,0.08c-1.6,0.09-3.2,0.18-4.81,0.26c-0.59,0.03-1.19,0.02-1.78,0.03c-0.05,0-0.1-0.01-0.21-0.03
				c0.11-0.11,0.18-0.19,0.26-0.26c1.98-1.84,3.67-3.91,4.99-6.27c0.89-1.59,1.55-3.28,1.85-5.08c0.3-1.76,0.22-3.5-0.3-5.22
				c-0.01-0.04-0.02-0.08-0.04-0.13c-0.01-0.03-0.03-0.06-0.05-0.1c-0.07,0-0.15-0.02-0.21,0c-2.56,0.73-5.09,1.52-7.49,2.68
				c-0.54,0.26-1.06,0.57-1.63,0.89c-0.05-0.38-0.11-0.75-0.16-1.13c-0.02-0.15,0.12-0.2,0.22-0.26c0.68-0.4,1.36-0.81,2.06-1.18
				c2.83-1.49,5.81-2.52,8.95-3.12c1.45-0.28,2.9-0.45,4.37-0.53c1.07-0.06,2.13-0.04,3.2,0.03c1.19,0.08,2.12-0.81,2.3-1.81
				c0.2-1.14-0.55-2.3-1.7-2.52c-0.43-0.08-0.87-0.13-1.31-0.12c-1.18,0-2.36-0.02-3.53,0.07c-5.29,0.41-10.28,1.88-14.94,4.43
				c-0.1,0.06-0.21,0.11-0.35,0.19c-0.06-0.34-0.11-0.63-0.16-0.93c-0.05-0.3-0.09-0.61-0.13-0.95c0.1-0.06,0.21-0.13,0.32-0.2
				c2.81-1.57,5.78-2.75,8.89-3.59c1.58-0.42,3.18-0.76,4.8-0.98c1.7-0.23,3.41-0.39,5.12-0.33c1.01,0.03,1.94-0.72,2.17-1.68
				c0.32-1.33-0.65-2.66-2.02-2.71c-0.91-0.03-1.82,0-2.73,0.05c-0.85,0.04-1.71,0.1-2.56,0.22c-1.19,0.17-2.39,0.35-3.57,0.6
				c-3.68,0.77-7.21,1.99-10.57,3.68c-0.17,0.09-0.35,0.18-0.57,0.29c-0.09-0.6-0.18-1.16-0.26-1.73c0.26-0.15,0.5-0.29,0.74-0.41
				c3.56-1.92,7.31-3.31,11.25-4.19c1.34-0.3,2.69-0.54,4.05-0.71c1.05-0.13,2.1-0.21,3.15-0.23c0.92-0.01,1.63-0.42,2.03-1.27
				c0.67-1.41-0.3-2.99-1.72-3.1c-0.66-0.05-1.34-0.01-2.01,0.02c-0.58,0.03-1.16,0.1-1.74,0.17c-0.97,0.13-1.94,0.25-2.9,0.42
				c-2.64,0.48-5.22,1.18-7.74,2.09c-1.88,0.68-3.71,1.48-5.49,2.39c-0.1,0.05-0.19,0.1-0.34,0.17c-0.08-0.54-0.16-1.04-0.25-1.58
				c0.09-0.07,0.18-0.14,0.28-0.21c3.53-2.35,7.37-3.97,11.53-4.84c1.15-0.24,2.31-0.42,3.48-0.53c1.12-0.11,2.24-0.16,3.36-0.1
				c1.12,0.06,2.24-0.77,2.31-2.09c0.06-1.12-0.7-2.05-1.71-2.24c-0.57-0.1-1.16-0.11-1.74-0.1c-0.8,0.01-1.61,0.03-2.4,0.11
				c-1.03,0.1-2.05,0.23-3.07,0.4c-2.5,0.44-4.93,1.14-7.29,2.09c-1.78,0.71-3.49,1.56-5.14,2.53c-0.08,0.04-0.15,0.09-0.23,0.13
				c-0.02,0.01-0.04,0-0.1,0.01c-0.07-0.47-0.14-0.94-0.21-1.42c-0.03-0.17,0.08-0.24,0.19-0.31c0.73-0.43,1.44-0.89,2.19-1.29
				c2.77-1.49,5.72-2.52,8.79-3.18c1.36-0.29,2.74-0.52,4.13-0.65c1.04-0.09,2.08-0.11,3.13-0.17c0.22-0.01,0.44-0.02,0.66-0.05
				c0.9-0.13,1.68-0.96,1.78-1.87c0.15-1.35-0.84-2.49-2.23-2.49c-0.85,0-1.69,0.05-2.54,0.1c-0.74,0.05-1.49,0.13-2.23,0.2
				c-1.27,0.13-2.52,0.36-3.76,0.63c-2.28,0.49-4.49,1.19-6.65,2.08c-0.05,0.02-0.1,0.04-0.17,0.06c-0.03-0.13,0.06-0.21,0.11-0.3
				c0.41-0.74,0.69-1.51,0.79-2.36c0.1-0.92-0.07-1.79-0.45-2.63c-0.33-0.73-0.79-1.37-1.33-1.95c-0.08-0.09-0.16-0.18-0.27-0.29
				c0.11-0.06,0.2-0.11,0.29-0.15c1.96-0.86,3.98-1.48,6.08-1.92c1.23-0.25,2.47-0.43,3.71-0.51c1.2-0.07,2.39-0.07,3.59,0.03
				c1.49,0.13,2.95,0.41,4.38,0.87c3.24,1.05,5.94,2.91,8.16,5.48c0.05,0.06,0.09,0.12,0.17,0.23c-0.53,0-1.01-0.02-1.49,0
				c-0.92,0.04-1.6,0.48-1.96,1.32c-0.65,1.52,0.48,3.05,1.98,3.06c0.51,0,1.01-0.02,1.52,0c0.8,0.04,1.59,0.14,2.37,0.35
				c0.22,0.06,0.36,0.16,0.41,0.4c0.07,0.3,0.17,0.59,0.25,0.89c0.02,0.08,0.03,0.17,0.05,0.26c-0.48-0.04-0.94-0.09-1.4-0.1
				c-0.8-0.03-1.6-0.06-2.4-0.04c-1.06,0.03-1.86,0.7-2.11,1.68c-0.36,1.43,0.8,2.82,2.27,2.72c0.87-0.06,1.73,0,2.6,0.08
				c0.64,0.06,1.26,0.15,1.87,0.34c0.08,0.03,0.17,0.06,0.25,0.08c0.17,0.05,0.27,0.15,0.31,0.34C57.53,41.1,57.66,41.58,57.78,42.1
				z"/>
			<path class="st6" d="M46.37,94.16c0.04-0.11,0.08-0.22,0.13-0.33c0.47-1.14,0.71-2.33,0.77-3.56c0.09-1.71-0.09-3.4-0.53-5.06
				c-0.12-0.45-0.03-0.44-0.57-0.45c-1.44-0.02-2.88-0.03-4.32-0.04c-0.19,0-0.39,0-0.62,0c0,0.12,0,0.22,0,0.31
				c-0.02,0.96,0.01,1.91-0.07,2.86c-0.2,2.18-0.82,4.22-2.08,6.04c-0.27,0.4-0.58,0.77-0.97,1.08c0.02-0.07,0.04-0.14,0.07-0.21
				c0.55-1.43,0.86-2.92,1.05-4.44c0.2-1.59,0.23-3.18,0.17-4.77c-0.02-0.7-0.11-1.4-0.17-2.1c-0.01-0.17-0.02-0.35-0.04-0.55
				c2.92-0.29,5.81-0.57,8.74-0.86c0.03,0.13,0.07,0.24,0.09,0.36c0.33,1.58,0.56,3.18,0.57,4.8c0.01,1.74-0.18,3.44-0.9,5.05
				c-0.25,0.56-0.55,1.07-0.95,1.53c-0.11,0.12-0.22,0.23-0.33,0.35C46.4,94.18,46.39,94.17,46.37,94.16z"/>
			<path class="st6" d="M43.84,98.5c-0.31-0.09-0.57-0.16-0.83-0.25c-0.06-0.02-0.11-0.1-0.13-0.17c-0.02-0.09-0.01-0.2-0.01-0.29
				c0-2.72,0-5.45,0-8.17c0-0.13,0.01-0.26,0.02-0.4c0.33,0,0.63,0,0.95,0C43.84,92.3,43.84,95.37,43.84,98.5z"/>
			<path class="st6" d="M32.52,93.51c1.7-0.77,2.71-2.09,2.8-3.94c0.09-1.85-0.79-3.26-2.46-4.19c1.74,0.27,3.16,1.56,3.52,3.2
				c0.3,1.34-0.07,2.52-1,3.52c-0.7,0.76-1.58,1.2-2.6,1.36C32.69,93.48,32.6,93.5,32.52,93.51z"/>
		</g>
	</g>
</g>
</svg>
